# xmcd
#
# Track frame offsets: 
#        150
#        13879
#        33124
#        43359
#        65110
#        84337
#        96828
#        103015
#        120161
#        137502
#        156212
#        177089
#        190592
#        205165
#        222547
#        238702
#        252696
#        274331
#        286524
#        309304
#
# Disc length: 4338 seconds
#
# Revision: 0
# Processed by: cddbd v1.5.2PL0 Copyright (c) Steve Scherf et al.
# Submitted via: ExactAudioCopy v1.1
#
DISCID=1c10f014
DTITLE=Herman Van Veen - 100 - CD 2
DYEAR=2009
DGENRE=Cabaret
TTITLE0=Opzij (1998)
TTITLE1=Herman Van Veen and Monique Van De Ven - Uit Elkaar
TTITLE2=Hallo, Ik Ben Een Zanger
TTITLE3=Melk En Honing
TTITLE4=Herman Van Veen and The Rosenberg Trio - Meisje Met Anorexia
TTITLE5=Achterlangs (2009)
TTITLE6=De Meisjes Uit Vervlogen Dagen
TTITLE7=Anders Anders (2006)
TTITLE8=Kraanvogels (1998)
TTITLE9=Als Het Net Even Anders Was Gegaan (2009)
TTITLE10=Weet Je Nog (1991)
TTITLE11=De Bom Valt Nooit
TTITLE12=Herman Van Veen and The Rosenberg Trio - Teddybeer
TTITLE13=Hilversum III (1998)
TTITLE14=Zingende Doden
TTITLE15=Wie (1998)
TTITLE16=Edith Piaf (1998)
TTITLE17=Liedje
TTITLE18=Signalen
TTITLE19=Liefde Van Later (Live - Carré, Amsterdam 1996)
EXTD=
EXTT0=
EXTT1=
EXTT2=
EXTT3=
EXTT4=
EXTT5=
EXTT6=
EXTT7=
EXTT8=
EXTT9=
EXTT10=
EXTT11=
EXTT12=
EXTT13=
EXTT14=
EXTT15=
EXTT16=
EXTT17=
EXTT18=
EXTT19=
PLAYORDER=
